<svg xmlns="http://www.w3.org/2000/svg" width="381" height="96" viewBox="0 0 381 96" role="img" aria-label="Warden">
  <title>Warden</title>
  <defs>
    <linearGradient id="g" x1="0" y1="0" x2="1" y2="1">
      <stop offset="0%" stop-color="#00FFCC"/>
      <stop offset="55%" stop-color="#1FB6FF"/>
      <stop offset="100%" stop-color="#8A2BE2"/>
    </linearGradient>
    <filter id="glow" x="-30%" y="-30%" width="160%" height="160%">
      <feGaussianBlur stdDeviation="3" result="b"/>
      <feMerge><feMergeNode in="b"/><feMergeNode in="SourceGraphic"/></feMerge>
    </filter>
  </defs>
  <g fill="url(#g)" filter="url(#glow)">
    <path d="M297 0 L297 0 L35 720 L121 720 L332 142 L542 720 L640 720 L851 142 L1060 720 L1148 720 L886 0 L815 0 L591 615 L367 0 L297 0 Z" transform="translate(36.00,70.0) scale(0.05104,-0.05104)"/>
    <path d="M58 0 L58 600 Q58 633 74 660 Q90 688 117 704 Q145 720 178 720 L658 720 Q691 720 718 704 Q746 688 762 660 Q778 633 778 600 L778 0 L697 0 L697 263 L139 263 L139 0 L58 0 L58 0 M139 344 L697 344 L697 600 Q697 616 685 627 Q674 639 658 639 L178 639 Q162 639 150 627 Q139 616 139 600 L139 344 L139 344 Z" transform="translate(104.17,70.0) scale(0.05104,-0.05104)"/>
    <path d="M664 0 L429 280 L535 280 L771 1 L771 0 L664 0 M56 0 L56 719 L656 719 Q689 719 716 702 Q744 686 760 659 Q776 632 776 599 L776 388 Q776 355 760 328 Q744 301 716 284 Q689 268 656 268 L137 268 L137 0 L56 0 M176 350 L656 350 Q672 350 683 361 Q695 372 695 388 L695 599 Q695 615 683 626 Q672 638 656 638 L176 638 Q160 638 148 626 Q137 615 137 599 L137 388 Q137 372 148 361 Q160 350 176 350 Z" transform="translate(154.84,70.0) scale(0.05104,-0.05104)"/>
    <path d="M58 0 L58 720 L658 720 Q691 720 718 704 Q746 688 762 660 Q778 633 778 600 L778 120 Q778 87 762 59 Q746 32 718 16 Q691 0 658 0 L58 0 M178 81 L658 81 Q674 81 685 92 Q697 104 697 120 L697 600 Q697 616 685 627 Q674 639 658 639 L178 639 Q162 639 150 627 Q139 616 139 600 L139 120 Q139 104 150 92 Q162 81 178 81 Z" transform="translate(204.94,70.0) scale(0.05104,-0.05104)"/>
    <path d="M58 0 L58 720 L715 720 L715 639 L139 639 L139 401 L602 401 L602 319 L139 319 L139 81 L715 81 L715 0 L58 0 Z" transform="translate(255.51,70.0) scale(0.05104,-0.05104)"/>
    <path d="M56 0 L56 720 L167 720 L695 92 L695 720 L776 720 L776 0 L665 0 L137 628 L137 0 L56 0 Z" transform="translate(302.60,70.0) scale(0.05104,-0.05104)"/>
  </g>
</svg>
